<mxfile host="app.diagrams.net" agent="Mozilla/5.0 (Windows NT 10.0; Win64; x64) AppleWebKit/537.36 (KHTML, like Gecko) Chrome/134.0.0.0 Safari/537.36" scale="1" border="0" version="26.0.15">
  <diagram name="Page-1" id="En6bQN4-2kuQlOfrFLoK">
    <mxGraphModel dx="1259" dy="668" grid="1" gridSize="10" guides="1" tooltips="1" connect="1" arrows="1" fold="1" page="1" pageScale="1" pageWidth="1200" pageHeight="1920" math="0" shadow="0">
      <root>
        <mxCell id="0" />
        <mxCell id="1" parent="0" />
        <mxCell id="ksgnsbU4B685F2pNdM2x-21" value="" style="shape=trapezoid;perimeter=trapezoidPerimeter;whiteSpace=wrap;html=1;fixedSize=1;rotation=-90;size=30;fillColor=#eeeeee;strokeColor=#36393d;" parent="1" vertex="1">
          <mxGeometry x="200" y="790.0899999999999" width="140" height="60" as="geometry" />
        </mxCell>
        <mxCell id="ksgnsbU4B685F2pNdM2x-23" value="Tor Relay&lt;div&gt;&lt;br&gt;&lt;/div&gt;" style="rounded=1;whiteSpace=wrap;html=1;arcSize=3;fillColor=#f5f5f5;fontColor=#333333;strokeColor=#666666;" parent="1" vertex="1">
          <mxGeometry x="340" y="680" width="410" height="260" as="geometry" />
        </mxCell>
        <mxCell id="ksgnsbU4B685F2pNdM2x-127" style="rounded=0;orthogonalLoop=1;jettySize=auto;html=1;entryX=0;entryY=0.5;entryDx=0;entryDy=0;exitX=1;exitY=0.5;exitDx=0;exitDy=0;" parent="1" source="ksgnsbU4B685F2pNdM2x-26" target="ksgnsbU4B685F2pNdM2x-75" edge="1">
          <mxGeometry relative="1" as="geometry" />
        </mxCell>
        <mxCell id="ksgnsbU4B685F2pNdM2x-128" style="rounded=0;orthogonalLoop=1;jettySize=auto;html=1;entryX=0;entryY=0.5;entryDx=0;entryDy=0;exitX=1;exitY=0.5;exitDx=0;exitDy=0;" parent="1" source="ksgnsbU4B685F2pNdM2x-26" target="ksgnsbU4B685F2pNdM2x-84" edge="1">
          <mxGeometry relative="1" as="geometry" />
        </mxCell>
        <mxCell id="ksgnsbU4B685F2pNdM2x-26" value="" style="rounded=0;whiteSpace=wrap;html=1;" parent="1" vertex="1">
          <mxGeometry x="380" y="770" width="60" height="30" as="geometry" />
        </mxCell>
        <mxCell id="ksgnsbU4B685F2pNdM2x-129" style="rounded=0;orthogonalLoop=1;jettySize=auto;html=1;entryX=0;entryY=0.5;entryDx=0;entryDy=0;exitX=1;exitY=0.5;exitDx=0;exitDy=0;" parent="1" source="ksgnsbU4B685F2pNdM2x-27" target="ksgnsbU4B685F2pNdM2x-30" edge="1">
          <mxGeometry relative="1" as="geometry" />
        </mxCell>
        <mxCell id="ksgnsbU4B685F2pNdM2x-27" value="&lt;div&gt;&lt;br&gt;&lt;/div&gt;" style="rounded=0;whiteSpace=wrap;html=1;" parent="1" vertex="1">
          <mxGeometry x="380" y="840" width="60" height="30" as="geometry" />
        </mxCell>
        <mxCell id="ksgnsbU4B685F2pNdM2x-55" value="" style="group;fillColor=#bac8d3;strokeColor=#23445d;container=0;" parent="1" vertex="1" connectable="0">
          <mxGeometry x="490" y="739.91" width="90" height="30.09" as="geometry" />
        </mxCell>
        <mxCell id="ksgnsbU4B685F2pNdM2x-73" value="" style="group;fillColor=#bac8d3;strokeColor=#23445d;container=0;" parent="1" vertex="1" connectable="0">
          <mxGeometry x="490" y="790" width="90" height="30.09" as="geometry" />
        </mxCell>
        <mxCell id="ksgnsbU4B685F2pNdM2x-82" value="" style="group;fillColor=#bac8d3;strokeColor=#23445d;container=0;" parent="1" vertex="1" connectable="0">
          <mxGeometry x="490" y="840" width="90" height="30.09" as="geometry" />
        </mxCell>
        <mxCell id="ksgnsbU4B685F2pNdM2x-91" value="" style="group;fillColor=#bac8d3;strokeColor=#23445d;container=0;" parent="1" vertex="1" connectable="0">
          <mxGeometry x="490" y="890" width="90" height="30.09" as="geometry" />
        </mxCell>
        <mxCell id="ksgnsbU4B685F2pNdM2x-130" style="rounded=0;orthogonalLoop=1;jettySize=auto;html=1;entryX=0;entryY=0.5;entryDx=0;entryDy=0;" parent="1" source="ksgnsbU4B685F2pNdM2x-84" target="ksgnsbU4B685F2pNdM2x-120" edge="1">
          <mxGeometry relative="1" as="geometry" />
        </mxCell>
        <mxCell id="ksgnsbU4B685F2pNdM2x-131" style="rounded=0;orthogonalLoop=1;jettySize=auto;html=1;entryX=-0.001;entryY=0.552;entryDx=0;entryDy=0;exitX=1;exitY=0.5;exitDx=0;exitDy=0;entryPerimeter=0;" parent="1" source="ksgnsbU4B685F2pNdM2x-75" target="ksgnsbU4B685F2pNdM2x-102" edge="1">
          <mxGeometry relative="1" as="geometry" />
        </mxCell>
        <mxCell id="ksgnsbU4B685F2pNdM2x-132" style="rounded=0;orthogonalLoop=1;jettySize=auto;html=1;exitX=1;exitY=0.5;exitDx=0;exitDy=0;entryX=0;entryY=0.448;entryDx=0;entryDy=0;entryPerimeter=0;" parent="1" source="ksgnsbU4B685F2pNdM2x-30" target="ksgnsbU4B685F2pNdM2x-102" edge="1">
          <mxGeometry relative="1" as="geometry">
            <mxPoint x="660" y="781" as="targetPoint" />
          </mxGeometry>
        </mxCell>
        <mxCell id="ksgnsbU4B685F2pNdM2x-135" value="" style="shape=trapezoid;perimeter=trapezoidPerimeter;whiteSpace=wrap;html=1;fixedSize=1;rounded=0;rotation=90;fillColor=#eeeeee;strokeColor=#36393d;" parent="1" vertex="1">
          <mxGeometry x="760" y="789.9974177467598" width="120" height="60" as="geometry" />
        </mxCell>
        <mxCell id="ksgnsbU4B685F2pNdM2x-136" value="" style="edgeStyle=orthogonalEdgeStyle;rounded=0;orthogonalLoop=1;jettySize=auto;html=1;entryX=0.215;entryY=0.992;entryDx=0;entryDy=0;entryPerimeter=0;" parent="1" source="ksgnsbU4B685F2pNdM2x-102" target="ksgnsbU4B685F2pNdM2x-135" edge="1">
          <mxGeometry relative="1" as="geometry">
            <Array as="points" />
          </mxGeometry>
        </mxCell>
        <mxCell id="ksgnsbU4B685F2pNdM2x-137" style="edgeStyle=orthogonalEdgeStyle;rounded=0;orthogonalLoop=1;jettySize=auto;html=1;entryX=0.797;entryY=1.022;entryDx=0;entryDy=0;entryPerimeter=0;" parent="1" source="ksgnsbU4B685F2pNdM2x-120" target="ksgnsbU4B685F2pNdM2x-135" edge="1">
          <mxGeometry relative="1" as="geometry">
            <Array as="points" />
          </mxGeometry>
        </mxCell>
        <mxCell id="ksgnsbU4B685F2pNdM2x-138" style="edgeStyle=orthogonalEdgeStyle;rounded=0;orthogonalLoop=1;jettySize=auto;html=1;entryX=0;entryY=0.5;entryDx=0;entryDy=0;exitX=0.25;exitY=1;exitDx=0;exitDy=0;" parent="1" source="ksgnsbU4B685F2pNdM2x-21" target="ksgnsbU4B685F2pNdM2x-27" edge="1">
          <mxGeometry relative="1" as="geometry" />
        </mxCell>
        <mxCell id="ksgnsbU4B685F2pNdM2x-72" value="" style="group" parent="1" vertex="1" connectable="0">
          <mxGeometry x="490" y="739.91" width="90" height="30.09" as="geometry" />
        </mxCell>
        <mxCell id="ksgnsbU4B685F2pNdM2x-30" value="" style="rounded=0;whiteSpace=wrap;html=1;container=0;fillColor=#bac8d3;strokeColor=#000000;" parent="ksgnsbU4B685F2pNdM2x-72" vertex="1">
          <mxGeometry y="0.09000000000002484" width="90" height="29.99999999999997" as="geometry" />
        </mxCell>
        <mxCell id="ksgnsbU4B685F2pNdM2x-43" value="" style="endArrow=none;html=1;rounded=0;entryX=0.102;entryY=-0.003;entryDx=0;entryDy=0;entryPerimeter=0;exitX=0.103;exitY=1;exitDx=0;exitDy=0;exitPerimeter=0;" parent="ksgnsbU4B685F2pNdM2x-72" edge="1">
          <mxGeometry width="50" height="50" relative="1" as="geometry">
            <mxPoint x="12.972857142857148" y="30.09" as="sourcePoint" />
            <mxPoint x="12.857142857142858" y="2.492450690283474e-14" as="targetPoint" />
          </mxGeometry>
        </mxCell>
        <mxCell id="ksgnsbU4B685F2pNdM2x-45" value="" style="endArrow=none;html=1;rounded=0;entryX=0.102;entryY=-0.003;entryDx=0;entryDy=0;entryPerimeter=0;exitX=0.103;exitY=1;exitDx=0;exitDy=0;exitPerimeter=0;" parent="ksgnsbU4B685F2pNdM2x-72" edge="1">
          <mxGeometry width="50" height="50" relative="1" as="geometry">
            <mxPoint x="25.714285714285715" y="30.09" as="sourcePoint" />
            <mxPoint x="25.714285714285715" y="0.08999999999999991" as="targetPoint" />
          </mxGeometry>
        </mxCell>
        <mxCell id="ksgnsbU4B685F2pNdM2x-47" value="" style="endArrow=none;html=1;rounded=0;entryX=0.102;entryY=-0.003;entryDx=0;entryDy=0;entryPerimeter=0;exitX=0.103;exitY=1;exitDx=0;exitDy=0;exitPerimeter=0;" parent="ksgnsbU4B685F2pNdM2x-72" edge="1">
          <mxGeometry width="50" height="50" relative="1" as="geometry">
            <mxPoint x="38.57142857142858" y="30.09" as="sourcePoint" />
            <mxPoint x="38.57142857142858" y="0.08999999999999991" as="targetPoint" />
          </mxGeometry>
        </mxCell>
        <mxCell id="ksgnsbU4B685F2pNdM2x-49" value="" style="endArrow=none;html=1;rounded=0;entryX=0.102;entryY=-0.003;entryDx=0;entryDy=0;entryPerimeter=0;exitX=0.103;exitY=1;exitDx=0;exitDy=0;exitPerimeter=0;" parent="ksgnsbU4B685F2pNdM2x-72" edge="1">
          <mxGeometry width="50" height="50" relative="1" as="geometry">
            <mxPoint x="51.42857142857143" y="30" as="sourcePoint" />
            <mxPoint x="51.42857142857143" as="targetPoint" />
          </mxGeometry>
        </mxCell>
        <mxCell id="ksgnsbU4B685F2pNdM2x-51" value="" style="endArrow=none;html=1;rounded=0;entryX=0.102;entryY=-0.003;entryDx=0;entryDy=0;entryPerimeter=0;exitX=0.103;exitY=1;exitDx=0;exitDy=0;exitPerimeter=0;" parent="ksgnsbU4B685F2pNdM2x-72" edge="1">
          <mxGeometry width="50" height="50" relative="1" as="geometry">
            <mxPoint x="64.28571428571429" y="30" as="sourcePoint" />
            <mxPoint x="64.28571428571429" as="targetPoint" />
          </mxGeometry>
        </mxCell>
        <mxCell id="ksgnsbU4B685F2pNdM2x-53" value="" style="endArrow=none;html=1;rounded=0;entryX=0.102;entryY=-0.003;entryDx=0;entryDy=0;entryPerimeter=0;exitX=0.103;exitY=1;exitDx=0;exitDy=0;exitPerimeter=0;" parent="ksgnsbU4B685F2pNdM2x-72" edge="1">
          <mxGeometry width="50" height="50" relative="1" as="geometry">
            <mxPoint x="77.14285714285715" y="30" as="sourcePoint" />
            <mxPoint x="77.14285714285715" as="targetPoint" />
          </mxGeometry>
        </mxCell>
        <mxCell id="ksgnsbU4B685F2pNdM2x-83" value="" style="group;fillColor=#bac8d3;strokeColor=#23445d;container=0;" parent="1" vertex="1" connectable="0">
          <mxGeometry x="490" y="840" width="90" height="30.09" as="geometry" />
        </mxCell>
        <mxCell id="ksgnsbU4B685F2pNdM2x-74" value="" style="group;fillColor=#bac8d3;strokeColor=#23445d;container=0;" parent="1" vertex="1" connectable="0">
          <mxGeometry x="490" y="790" width="90" height="30.09" as="geometry" />
        </mxCell>
        <mxCell id="ksgnsbU4B685F2pNdM2x-92" value="" style="group;fillColor=#bac8d3;strokeColor=#23445d;container=0;" parent="1" vertex="1" connectable="0">
          <mxGeometry x="490" y="890" width="90" height="30.09" as="geometry" />
        </mxCell>
        <mxCell id="ksgnsbU4B685F2pNdM2x-75" value="" style="rounded=0;whiteSpace=wrap;html=1;container=0;fillColor=#bac8d3;strokeColor=#000000;" parent="1" vertex="1">
          <mxGeometry x="490" y="790.09" width="90" height="29.99999999999997" as="geometry" />
        </mxCell>
        <mxCell id="ksgnsbU4B685F2pNdM2x-76" value="" style="endArrow=none;html=1;rounded=0;entryX=0.102;entryY=-0.003;entryDx=0;entryDy=0;entryPerimeter=0;exitX=0.103;exitY=1;exitDx=0;exitDy=0;exitPerimeter=0;" parent="1" edge="1">
          <mxGeometry width="50" height="50" relative="1" as="geometry">
            <mxPoint x="502.97285714285715" y="820.0899999999999" as="sourcePoint" />
            <mxPoint x="502.85714285714283" y="790" as="targetPoint" />
          </mxGeometry>
        </mxCell>
        <mxCell id="ksgnsbU4B685F2pNdM2x-77" value="" style="endArrow=none;html=1;rounded=0;entryX=0.102;entryY=-0.003;entryDx=0;entryDy=0;entryPerimeter=0;exitX=0.103;exitY=1;exitDx=0;exitDy=0;exitPerimeter=0;" parent="1" edge="1">
          <mxGeometry width="50" height="50" relative="1" as="geometry">
            <mxPoint x="515.7142857142857" y="820.0899999999999" as="sourcePoint" />
            <mxPoint x="515.7142857142857" y="790.0899999999999" as="targetPoint" />
          </mxGeometry>
        </mxCell>
        <mxCell id="ksgnsbU4B685F2pNdM2x-78" value="" style="endArrow=none;html=1;rounded=0;entryX=0.102;entryY=-0.003;entryDx=0;entryDy=0;entryPerimeter=0;exitX=0.103;exitY=1;exitDx=0;exitDy=0;exitPerimeter=0;" parent="1" edge="1">
          <mxGeometry width="50" height="50" relative="1" as="geometry">
            <mxPoint x="528.5714285714286" y="820.0899999999999" as="sourcePoint" />
            <mxPoint x="528.5714285714286" y="790.0899999999999" as="targetPoint" />
          </mxGeometry>
        </mxCell>
        <mxCell id="ksgnsbU4B685F2pNdM2x-79" value="" style="endArrow=none;html=1;rounded=0;entryX=0.102;entryY=-0.003;entryDx=0;entryDy=0;entryPerimeter=0;exitX=0.103;exitY=1;exitDx=0;exitDy=0;exitPerimeter=0;" parent="1" edge="1">
          <mxGeometry width="50" height="50" relative="1" as="geometry">
            <mxPoint x="541.4285714285714" y="820" as="sourcePoint" />
            <mxPoint x="541.4285714285714" y="790" as="targetPoint" />
          </mxGeometry>
        </mxCell>
        <mxCell id="ksgnsbU4B685F2pNdM2x-80" value="" style="endArrow=none;html=1;rounded=0;entryX=0.102;entryY=-0.003;entryDx=0;entryDy=0;entryPerimeter=0;exitX=0.103;exitY=1;exitDx=0;exitDy=0;exitPerimeter=0;" parent="1" edge="1">
          <mxGeometry width="50" height="50" relative="1" as="geometry">
            <mxPoint x="554.2857142857143" y="820" as="sourcePoint" />
            <mxPoint x="554.2857142857143" y="790" as="targetPoint" />
          </mxGeometry>
        </mxCell>
        <mxCell id="ksgnsbU4B685F2pNdM2x-81" value="" style="endArrow=none;html=1;rounded=0;entryX=0.102;entryY=-0.003;entryDx=0;entryDy=0;entryPerimeter=0;exitX=0.103;exitY=1;exitDx=0;exitDy=0;exitPerimeter=0;" parent="1" edge="1">
          <mxGeometry width="50" height="50" relative="1" as="geometry">
            <mxPoint x="567.1428571428571" y="820" as="sourcePoint" />
            <mxPoint x="567.1428571428571" y="790" as="targetPoint" />
          </mxGeometry>
        </mxCell>
        <mxCell id="ksgnsbU4B685F2pNdM2x-84" value="" style="rounded=0;whiteSpace=wrap;html=1;container=0;fillColor=#bac8d3;strokeColor=#000000;" parent="1" vertex="1">
          <mxGeometry x="490" y="840.09" width="90" height="29.99999999999997" as="geometry" />
        </mxCell>
        <mxCell id="ksgnsbU4B685F2pNdM2x-85" value="" style="endArrow=none;html=1;rounded=0;entryX=0.102;entryY=-0.003;entryDx=0;entryDy=0;entryPerimeter=0;exitX=0.103;exitY=1;exitDx=0;exitDy=0;exitPerimeter=0;" parent="1" edge="1">
          <mxGeometry width="50" height="50" relative="1" as="geometry">
            <mxPoint x="502.97285714285715" y="870.0899999999999" as="sourcePoint" />
            <mxPoint x="502.85714285714283" y="840" as="targetPoint" />
          </mxGeometry>
        </mxCell>
        <mxCell id="ksgnsbU4B685F2pNdM2x-86" value="" style="endArrow=none;html=1;rounded=0;entryX=0.102;entryY=-0.003;entryDx=0;entryDy=0;entryPerimeter=0;exitX=0.103;exitY=1;exitDx=0;exitDy=0;exitPerimeter=0;" parent="1" edge="1">
          <mxGeometry width="50" height="50" relative="1" as="geometry">
            <mxPoint x="515.7142857142857" y="870.0899999999999" as="sourcePoint" />
            <mxPoint x="515.7142857142857" y="840.0899999999999" as="targetPoint" />
          </mxGeometry>
        </mxCell>
        <mxCell id="ksgnsbU4B685F2pNdM2x-87" value="" style="endArrow=none;html=1;rounded=0;entryX=0.102;entryY=-0.003;entryDx=0;entryDy=0;entryPerimeter=0;exitX=0.103;exitY=1;exitDx=0;exitDy=0;exitPerimeter=0;" parent="1" edge="1">
          <mxGeometry width="50" height="50" relative="1" as="geometry">
            <mxPoint x="528.5714285714286" y="870.0899999999999" as="sourcePoint" />
            <mxPoint x="528.5714285714286" y="840.0899999999999" as="targetPoint" />
          </mxGeometry>
        </mxCell>
        <mxCell id="ksgnsbU4B685F2pNdM2x-88" value="" style="endArrow=none;html=1;rounded=0;entryX=0.102;entryY=-0.003;entryDx=0;entryDy=0;entryPerimeter=0;exitX=0.103;exitY=1;exitDx=0;exitDy=0;exitPerimeter=0;" parent="1" edge="1">
          <mxGeometry width="50" height="50" relative="1" as="geometry">
            <mxPoint x="541.4285714285714" y="870" as="sourcePoint" />
            <mxPoint x="541.4285714285714" y="840" as="targetPoint" />
          </mxGeometry>
        </mxCell>
        <mxCell id="ksgnsbU4B685F2pNdM2x-89" value="" style="endArrow=none;html=1;rounded=0;entryX=0.102;entryY=-0.003;entryDx=0;entryDy=0;entryPerimeter=0;exitX=0.103;exitY=1;exitDx=0;exitDy=0;exitPerimeter=0;" parent="1" edge="1">
          <mxGeometry width="50" height="50" relative="1" as="geometry">
            <mxPoint x="554.2857142857143" y="870" as="sourcePoint" />
            <mxPoint x="554.2857142857143" y="840" as="targetPoint" />
          </mxGeometry>
        </mxCell>
        <mxCell id="ksgnsbU4B685F2pNdM2x-90" value="" style="endArrow=none;html=1;rounded=0;entryX=0.102;entryY=-0.003;entryDx=0;entryDy=0;entryPerimeter=0;exitX=0.103;exitY=1;exitDx=0;exitDy=0;exitPerimeter=0;" parent="1" edge="1">
          <mxGeometry width="50" height="50" relative="1" as="geometry">
            <mxPoint x="567.1428571428571" y="870" as="sourcePoint" />
            <mxPoint x="567.1428571428571" y="840" as="targetPoint" />
          </mxGeometry>
        </mxCell>
        <mxCell id="ksgnsbU4B685F2pNdM2x-93" value="" style="rounded=0;whiteSpace=wrap;html=1;container=0;fillColor=#bac8d3;strokeColor=#000000;" parent="1" vertex="1">
          <mxGeometry x="490" y="890.09" width="90" height="29.99999999999997" as="geometry" />
        </mxCell>
        <mxCell id="ksgnsbU4B685F2pNdM2x-94" value="" style="endArrow=none;html=1;rounded=0;entryX=0.102;entryY=-0.003;entryDx=0;entryDy=0;entryPerimeter=0;exitX=0.103;exitY=1;exitDx=0;exitDy=0;exitPerimeter=0;" parent="1" edge="1">
          <mxGeometry width="50" height="50" relative="1" as="geometry">
            <mxPoint x="502.97285714285715" y="920.0899999999999" as="sourcePoint" />
            <mxPoint x="502.85714285714283" y="890" as="targetPoint" />
          </mxGeometry>
        </mxCell>
        <mxCell id="ksgnsbU4B685F2pNdM2x-95" value="" style="endArrow=none;html=1;rounded=0;entryX=0.102;entryY=-0.003;entryDx=0;entryDy=0;entryPerimeter=0;exitX=0.103;exitY=1;exitDx=0;exitDy=0;exitPerimeter=0;" parent="1" edge="1">
          <mxGeometry width="50" height="50" relative="1" as="geometry">
            <mxPoint x="515.7142857142857" y="920.0899999999999" as="sourcePoint" />
            <mxPoint x="515.7142857142857" y="890.0899999999999" as="targetPoint" />
          </mxGeometry>
        </mxCell>
        <mxCell id="ksgnsbU4B685F2pNdM2x-96" value="" style="endArrow=none;html=1;rounded=0;entryX=0.102;entryY=-0.003;entryDx=0;entryDy=0;entryPerimeter=0;exitX=0.103;exitY=1;exitDx=0;exitDy=0;exitPerimeter=0;" parent="1" edge="1">
          <mxGeometry width="50" height="50" relative="1" as="geometry">
            <mxPoint x="528.5714285714286" y="920.0899999999999" as="sourcePoint" />
            <mxPoint x="528.5714285714286" y="890.0899999999999" as="targetPoint" />
          </mxGeometry>
        </mxCell>
        <mxCell id="ksgnsbU4B685F2pNdM2x-97" value="" style="endArrow=none;html=1;rounded=0;entryX=0.102;entryY=-0.003;entryDx=0;entryDy=0;entryPerimeter=0;exitX=0.103;exitY=1;exitDx=0;exitDy=0;exitPerimeter=0;" parent="1" edge="1">
          <mxGeometry width="50" height="50" relative="1" as="geometry">
            <mxPoint x="541.4285714285714" y="920" as="sourcePoint" />
            <mxPoint x="541.4285714285714" y="890" as="targetPoint" />
          </mxGeometry>
        </mxCell>
        <mxCell id="ksgnsbU4B685F2pNdM2x-98" value="" style="endArrow=none;html=1;rounded=0;entryX=0.102;entryY=-0.003;entryDx=0;entryDy=0;entryPerimeter=0;exitX=0.103;exitY=1;exitDx=0;exitDy=0;exitPerimeter=0;" parent="1" edge="1">
          <mxGeometry width="50" height="50" relative="1" as="geometry">
            <mxPoint x="554.2857142857143" y="920" as="sourcePoint" />
            <mxPoint x="554.2857142857143" y="890" as="targetPoint" />
          </mxGeometry>
        </mxCell>
        <mxCell id="ksgnsbU4B685F2pNdM2x-99" value="" style="endArrow=none;html=1;rounded=0;entryX=0.102;entryY=-0.003;entryDx=0;entryDy=0;entryPerimeter=0;exitX=0.103;exitY=1;exitDx=0;exitDy=0;exitPerimeter=0;" parent="1" edge="1">
          <mxGeometry width="50" height="50" relative="1" as="geometry">
            <mxPoint x="567.1428571428571" y="920" as="sourcePoint" />
            <mxPoint x="567.1428571428571" y="890" as="targetPoint" />
          </mxGeometry>
        </mxCell>
        <mxCell id="ksgnsbU4B685F2pNdM2x-101" value="" style="group;fillColor=#d0cee2;strokeColor=#56517e;" parent="1" vertex="1" connectable="0">
          <mxGeometry x="630" y="767.47" width="80" height="35.05" as="geometry" />
        </mxCell>
        <mxCell id="ksgnsbU4B685F2pNdM2x-140" value="" style="group" parent="ksgnsbU4B685F2pNdM2x-101" vertex="1" connectable="0">
          <mxGeometry width="80" height="35.05" as="geometry" />
        </mxCell>
        <mxCell id="ksgnsbU4B685F2pNdM2x-102" value="" style="rounded=0;whiteSpace=wrap;html=1;container=0;fillColor=#d0cee2;strokeColor=#000000;" parent="ksgnsbU4B685F2pNdM2x-140" vertex="1">
          <mxGeometry y="0.1048354935194706" width="80" height="34.945164506480516" as="geometry" />
        </mxCell>
        <mxCell id="ksgnsbU4B685F2pNdM2x-103" value="" style="endArrow=none;html=1;rounded=0;entryX=0.102;entryY=-0.003;entryDx=0;entryDy=0;entryPerimeter=0;exitX=0.103;exitY=1;exitDx=0;exitDy=0;exitPerimeter=0;" parent="ksgnsbU4B685F2pNdM2x-140" edge="1">
          <mxGeometry width="50" height="50" relative="1" as="geometry">
            <mxPoint x="11.531428571428576" y="35.05" as="sourcePoint" />
            <mxPoint x="11.428571428571429" y="2.903303313208233e-14" as="targetPoint" />
          </mxGeometry>
        </mxCell>
        <mxCell id="ksgnsbU4B685F2pNdM2x-104" value="" style="endArrow=none;html=1;rounded=0;entryX=0.102;entryY=-0.003;entryDx=0;entryDy=0;entryPerimeter=0;exitX=0.103;exitY=1;exitDx=0;exitDy=0;exitPerimeter=0;" parent="ksgnsbU4B685F2pNdM2x-140" edge="1">
          <mxGeometry width="50" height="50" relative="1" as="geometry">
            <mxPoint x="22.857142857142858" y="35.05" as="sourcePoint" />
            <mxPoint x="22.857142857142858" y="0.10483549351944156" as="targetPoint" />
          </mxGeometry>
        </mxCell>
        <mxCell id="ksgnsbU4B685F2pNdM2x-105" value="" style="endArrow=none;html=1;rounded=0;entryX=0.102;entryY=-0.003;entryDx=0;entryDy=0;entryPerimeter=0;exitX=0.103;exitY=1;exitDx=0;exitDy=0;exitPerimeter=0;" parent="ksgnsbU4B685F2pNdM2x-140" edge="1">
          <mxGeometry width="50" height="50" relative="1" as="geometry">
            <mxPoint x="34.28571428571429" y="35.05" as="sourcePoint" />
            <mxPoint x="34.28571428571429" y="0.10483549351944156" as="targetPoint" />
          </mxGeometry>
        </mxCell>
        <mxCell id="ksgnsbU4B685F2pNdM2x-106" value="" style="endArrow=none;html=1;rounded=0;entryX=0.102;entryY=-0.003;entryDx=0;entryDy=0;entryPerimeter=0;exitX=0.103;exitY=1;exitDx=0;exitDy=0;exitPerimeter=0;" parent="ksgnsbU4B685F2pNdM2x-140" edge="1">
          <mxGeometry width="50" height="50" relative="1" as="geometry">
            <mxPoint x="45.714285714285715" y="34.94516450648055" as="sourcePoint" />
            <mxPoint x="45.714285714285715" as="targetPoint" />
          </mxGeometry>
        </mxCell>
        <mxCell id="ksgnsbU4B685F2pNdM2x-107" value="" style="endArrow=none;html=1;rounded=0;entryX=0.102;entryY=-0.003;entryDx=0;entryDy=0;entryPerimeter=0;exitX=0.103;exitY=1;exitDx=0;exitDy=0;exitPerimeter=0;" parent="ksgnsbU4B685F2pNdM2x-140" edge="1">
          <mxGeometry width="50" height="50" relative="1" as="geometry">
            <mxPoint x="57.142857142857146" y="34.94516450648055" as="sourcePoint" />
            <mxPoint x="57.142857142857146" as="targetPoint" />
          </mxGeometry>
        </mxCell>
        <mxCell id="ksgnsbU4B685F2pNdM2x-108" value="" style="endArrow=none;html=1;rounded=0;entryX=0.102;entryY=-0.003;entryDx=0;entryDy=0;entryPerimeter=0;exitX=0.103;exitY=1;exitDx=0;exitDy=0;exitPerimeter=0;" parent="ksgnsbU4B685F2pNdM2x-140" edge="1">
          <mxGeometry width="50" height="50" relative="1" as="geometry">
            <mxPoint x="68.57142857142858" y="34.94516450648055" as="sourcePoint" />
            <mxPoint x="68.57142857142858" as="targetPoint" />
          </mxGeometry>
        </mxCell>
        <mxCell id="ksgnsbU4B685F2pNdM2x-119" value="" style="group" parent="1" vertex="1" connectable="0">
          <mxGeometry x="630" y="837.47" width="80" height="35.05" as="geometry" />
        </mxCell>
        <mxCell id="ksgnsbU4B685F2pNdM2x-141" value="" style="group" parent="ksgnsbU4B685F2pNdM2x-119" vertex="1" connectable="0">
          <mxGeometry width="80" height="35.05" as="geometry" />
        </mxCell>
        <mxCell id="ksgnsbU4B685F2pNdM2x-120" value="" style="rounded=0;whiteSpace=wrap;html=1;container=0;fillColor=#d0cee2;strokeColor=default;" parent="ksgnsbU4B685F2pNdM2x-141" vertex="1">
          <mxGeometry y="0.1048354935194706" width="80" height="34.945164506480516" as="geometry" />
        </mxCell>
        <mxCell id="ksgnsbU4B685F2pNdM2x-121" value="" style="endArrow=none;html=1;rounded=0;entryX=0.102;entryY=-0.003;entryDx=0;entryDy=0;entryPerimeter=0;exitX=0.103;exitY=1;exitDx=0;exitDy=0;exitPerimeter=0;" parent="ksgnsbU4B685F2pNdM2x-141" edge="1">
          <mxGeometry width="50" height="50" relative="1" as="geometry">
            <mxPoint x="11.531428571428576" y="35.05" as="sourcePoint" />
            <mxPoint x="11.428571428571429" y="2.903303313208233e-14" as="targetPoint" />
          </mxGeometry>
        </mxCell>
        <mxCell id="ksgnsbU4B685F2pNdM2x-122" value="" style="endArrow=none;html=1;rounded=0;entryX=0.102;entryY=-0.003;entryDx=0;entryDy=0;entryPerimeter=0;exitX=0.103;exitY=1;exitDx=0;exitDy=0;exitPerimeter=0;" parent="ksgnsbU4B685F2pNdM2x-141" edge="1">
          <mxGeometry width="50" height="50" relative="1" as="geometry">
            <mxPoint x="22.857142857142858" y="35.05" as="sourcePoint" />
            <mxPoint x="22.857142857142858" y="0.10483549351944156" as="targetPoint" />
          </mxGeometry>
        </mxCell>
        <mxCell id="ksgnsbU4B685F2pNdM2x-123" value="" style="endArrow=none;html=1;rounded=0;entryX=0.102;entryY=-0.003;entryDx=0;entryDy=0;entryPerimeter=0;exitX=0.103;exitY=1;exitDx=0;exitDy=0;exitPerimeter=0;" parent="ksgnsbU4B685F2pNdM2x-141" edge="1">
          <mxGeometry width="50" height="50" relative="1" as="geometry">
            <mxPoint x="34.28571428571429" y="35.05" as="sourcePoint" />
            <mxPoint x="34.28571428571429" y="0.10483549351944156" as="targetPoint" />
          </mxGeometry>
        </mxCell>
        <mxCell id="ksgnsbU4B685F2pNdM2x-124" value="" style="endArrow=none;html=1;rounded=0;entryX=0.102;entryY=-0.003;entryDx=0;entryDy=0;entryPerimeter=0;exitX=0.103;exitY=1;exitDx=0;exitDy=0;exitPerimeter=0;" parent="ksgnsbU4B685F2pNdM2x-141" edge="1">
          <mxGeometry width="50" height="50" relative="1" as="geometry">
            <mxPoint x="45.714285714285715" y="34.94516450648055" as="sourcePoint" />
            <mxPoint x="45.714285714285715" as="targetPoint" />
          </mxGeometry>
        </mxCell>
        <mxCell id="ksgnsbU4B685F2pNdM2x-125" value="" style="endArrow=none;html=1;rounded=0;entryX=0.102;entryY=-0.003;entryDx=0;entryDy=0;entryPerimeter=0;exitX=0.103;exitY=1;exitDx=0;exitDy=0;exitPerimeter=0;" parent="ksgnsbU4B685F2pNdM2x-141" edge="1">
          <mxGeometry width="50" height="50" relative="1" as="geometry">
            <mxPoint x="57.142857142857146" y="34.94516450648055" as="sourcePoint" />
            <mxPoint x="57.142857142857146" as="targetPoint" />
          </mxGeometry>
        </mxCell>
        <mxCell id="ksgnsbU4B685F2pNdM2x-126" value="" style="endArrow=none;html=1;rounded=0;entryX=0.102;entryY=-0.003;entryDx=0;entryDy=0;entryPerimeter=0;exitX=0.103;exitY=1;exitDx=0;exitDy=0;exitPerimeter=0;" parent="ksgnsbU4B685F2pNdM2x-141" edge="1">
          <mxGeometry width="50" height="50" relative="1" as="geometry">
            <mxPoint x="68.57142857142858" y="34.94516450648055" as="sourcePoint" />
            <mxPoint x="68.57142857142858" as="targetPoint" />
          </mxGeometry>
        </mxCell>
        <mxCell id="ksgnsbU4B685F2pNdM2x-143" style="edgeStyle=orthogonalEdgeStyle;rounded=0;orthogonalLoop=1;jettySize=auto;html=1;entryX=0;entryY=0.5;entryDx=0;entryDy=0;exitX=0.75;exitY=1;exitDx=0;exitDy=0;" parent="1" source="ksgnsbU4B685F2pNdM2x-21" target="ksgnsbU4B685F2pNdM2x-26" edge="1">
          <mxGeometry relative="1" as="geometry">
            <Array as="points" />
          </mxGeometry>
        </mxCell>
        <mxCell id="ksgnsbU4B685F2pNdM2x-144" value="Circuit Queues" style="text;html=1;align=center;verticalAlign=middle;whiteSpace=wrap;rounded=0;fontStyle=0;fontFamily=Computer Modern;horizontal=1;fontSize=18;" parent="1" vertex="1">
          <mxGeometry x="505" y="700" width="60" height="30" as="geometry" />
        </mxCell>
        <mxCell id="ksgnsbU4B685F2pNdM2x-145" value="Input Buffers" style="text;html=1;align=center;verticalAlign=middle;whiteSpace=wrap;rounded=0;fontStyle=0;fontFamily=Computer Modern;horizontal=1;fontSize=18;" parent="1" vertex="1">
          <mxGeometry x="380" y="730.09" width="60" height="30" as="geometry" />
        </mxCell>
        <mxCell id="ksgnsbU4B685F2pNdM2x-146" value="Output Buffers" style="text;html=1;align=center;verticalAlign=middle;whiteSpace=wrap;rounded=0;fontStyle=0;fontFamily=Computer Modern;horizontal=1;fontSize=18;" parent="1" vertex="1">
          <mxGeometry x="640" y="730.09" width="60" height="30" as="geometry" />
        </mxCell>
        <mxCell id="ksgnsbU4B685F2pNdM2x-147" value="(b&lt;span style=&quot;background-color: transparent; color: light-dark(rgb(0, 0, 0), rgb(255, 255, 255));&quot;&gt;)&lt;/span&gt;" style="text;html=1;align=center;verticalAlign=middle;whiteSpace=wrap;rounded=0;fontFamily=Computer Modern;fontSize=18;" parent="1" vertex="1">
          <mxGeometry x="435" y="760" width="60" height="30" as="geometry" />
        </mxCell>
        <mxCell id="ksgnsbU4B685F2pNdM2x-148" value="(a&lt;span style=&quot;background-color: transparent; color: light-dark(rgb(0, 0, 0), rgb(255, 255, 255));&quot;&gt;)&lt;/span&gt;" style="text;html=1;align=center;verticalAlign=middle;whiteSpace=wrap;rounded=0;fontFamily=Computer Modern;fontSize=18;" parent="1" vertex="1">
          <mxGeometry x="300" y="756.09" width="60" height="30" as="geometry" />
        </mxCell>
        <mxCell id="ksgnsbU4B685F2pNdM2x-152" value="" style="endArrow=classic;html=1;rounded=0;strokeWidth=2;dashed=1;" parent="1" edge="1">
          <mxGeometry width="50" height="50" relative="1" as="geometry">
            <mxPoint x="180" y="840.09" as="sourcePoint" />
            <mxPoint x="240" y="840.09" as="targetPoint" />
          </mxGeometry>
        </mxCell>
        <mxCell id="ksgnsbU4B685F2pNdM2x-153" value="" style="endArrow=classic;html=1;rounded=0;strokeWidth=2;dashed=1;" parent="1" edge="1">
          <mxGeometry width="50" height="50" relative="1" as="geometry">
            <mxPoint x="180" y="799.6" as="sourcePoint" />
            <mxPoint x="240" y="799.6" as="targetPoint" />
          </mxGeometry>
        </mxCell>
        <mxCell id="ksgnsbU4B685F2pNdM2x-154" value="" style="endArrow=classic;html=1;rounded=0;strokeWidth=2;dashed=1;" parent="1" edge="1">
          <mxGeometry width="50" height="50" relative="1" as="geometry">
            <mxPoint x="850" y="839.6" as="sourcePoint" />
            <mxPoint x="910" y="839.6" as="targetPoint" />
          </mxGeometry>
        </mxCell>
        <mxCell id="ksgnsbU4B685F2pNdM2x-155" value="" style="endArrow=classic;html=1;rounded=0;strokeWidth=2;dashed=1;" parent="1" edge="1">
          <mxGeometry width="50" height="50" relative="1" as="geometry">
            <mxPoint x="850" y="799.11" as="sourcePoint" />
            <mxPoint x="910" y="799.11" as="targetPoint" />
          </mxGeometry>
        </mxCell>
        <mxCell id="ksgnsbU4B685F2pNdM2x-156" value="(c&lt;span style=&quot;background-color: transparent; color: light-dark(rgb(0, 0, 0), rgb(255, 255, 255));&quot;&gt;)&lt;/span&gt;" style="text;html=1;align=center;verticalAlign=middle;whiteSpace=wrap;rounded=0;fontFamily=Computer Modern;fontSize=18;" parent="1" vertex="1">
          <mxGeometry x="575" y="738" width="60" height="30" as="geometry" />
        </mxCell>
        <mxCell id="ksgnsbU4B685F2pNdM2x-157" value="(d&lt;span style=&quot;background-color: transparent; color: light-dark(rgb(0, 0, 0), rgb(255, 255, 255));&quot;&gt;)&lt;/span&gt;" style="text;html=1;align=center;verticalAlign=middle;whiteSpace=wrap;rounded=0;fontFamily=Computer Modern;fontSize=18;" parent="1" vertex="1">
          <mxGeometry x="702" y="757" width="60" height="30" as="geometry" />
        </mxCell>
        <mxCell id="ksgnsbU4B685F2pNdM2x-161" value="TCP" style="text;html=1;align=center;verticalAlign=middle;whiteSpace=wrap;rounded=0;fontStyle=0;fontFamily=Computer Modern;horizontal=1;fontSize=18;" parent="1" vertex="1">
          <mxGeometry x="240" y="805.0899999999999" width="60" height="30" as="geometry" />
        </mxCell>
        <mxCell id="ksgnsbU4B685F2pNdM2x-162" value="TCP" style="text;html=1;align=center;verticalAlign=middle;whiteSpace=wrap;rounded=0;fontStyle=0;fontFamily=Computer Modern;horizontal=1;fontSize=18;" parent="1" vertex="1">
          <mxGeometry x="790" y="805.0899999999999" width="60" height="30" as="geometry" />
        </mxCell>
        <mxCell id="NbU6tVaWInEHbkJTNxIr-7" value="" style="shape=image;verticalLabelPosition=bottom;labelBackgroundColor=default;verticalAlign=top;aspect=fixed;imageAspect=0;image=data:image/png,iVBORw0KGgoAAAANSUhEUgAAAMgAAADICAYAAACtWK6eAAA5zElEQVR4nOydB3RT1R/Hvy9tuge0pS1771FKywbZshEoQ6aAbAQBmQp/QFBEUEFwACKgsrRli2xkyKYte5W96aJ7Ju9/7s1LSZP3kpfVpu37nMNJ+lZuwvu+e3/3/oYMEhJ62HfXy2PXVVe//G6HhITNERrpUDssQj4+v9shIWFzhEU4DAwNtw9l2b52+d2W/MQ+vxsgYVtcZIPkDyMiv1Wyyrau7h5NGeYvRX63KT9h8rsBErbDnkjn0unKrL/AslVlcnnjkHrp9/O7TfmN1INIULZftm+bocjcAqAY7Jn2kjhUSLNYRRyWZZnQcPtZimz2IMvC146Vje0bkH0yv9tlK0hDrCLMoXvFPRMSkjayLPse6M3ALOsTlD09v9tlS0g9SBEl7LJzmYQ3SadyxMEwe0IazJmZ3+2yNSSBFEF2XnGoyyoyz7Bg60Aljrsu7h6DGWa+0txr7wp3KXWRDZJbpKE2gGSkFzHCIu3bZGUpdgDwhGqMnWpvLwvpUjUu0dRrHrjs55qsiOvNgn0/Cxm/BjOXwiza6HxEEkgRIjTcYYBSqdgAwEG9TcbIxvWsl3nVlOttD7dvqgQ7JlERE0K0ZscwvXoHKg5ZtNH5jCSQIkJohHwUWMVqsBoTMwxW926Q9Zsx1yHDp8eRV/spWeXHCpZtyF0njrGTdekdkHXO8i3PX6RZrCJAaLh8LKD8kdUUB5hLrh4VmnepGpUh5hr7r3t4pWSkjmdZdjwLlHx7GTxjZHYd+9TPvG6VxuczkkAKOaER8glglSvZ3D1HvD0jb9ArMP2hofP33fXySElMnAqwUwB4aO4jxj0D+w4hDdIfWan5+Y40i1UA2RHhVEHMcaHh8kmsUrlKUxwMA5ZhMNiQOIjhHRpuPyslKeEBwM7TEQeYCJmdU4vCLA5IAil4HHtQwUkJRWtDx4VFyMezrHKF9nYWzBd9AhX7hM5jWZYJi5CPTFLE3GdZdjFYeOkcxDDnPYu5t+kdkPzatG9RcJAEUsCIefP0I6WMvafvmNBwuxAlq1ypvZ1hmCN9AufMEzzvkkO9sAj5KaVSuZZl4ct3DAPmrKu7R4cOleMTTPwKBQppFqsAcehecc83CYmTa9nXqATw28Rh4fbvKFn2D52HH4M4ORyG8i0GHrtewi02I34BWMUklhW+JxiGOS13KdapS9WYJIt8oQKAJJACxJuEpJkMmFu1a1/P5Nu//bJDHaVCsQuAk/Y+GTDmvQapz7W3E0HFpsf9wQJl9X86c0ruUqzLezWKjjggDbEKDn9fd/VnWPZjBviXb//Oq85lFQrFfpZFMe19DIONIQ0UoZrbWLavXViE/Twlyx41JA6GYU74OBXvXNTEAUkgBYfUjIxpLODCyHQFsu9uFcfsrKztYFFa50QGD+QuxSdqbtoT6Vw6LGLHUaWSnQ9Af0gtwxx3t/Pu0qZ2dLJFvkgBQxJIAWD7TXdvgB3LAKnV5dXPa+9PSXqwimXZYO3tDAMWDDNC88m/PcK+Q4Yi8zLLsu8Y/GCGOe7k79ulY8CrFMt8k4KHJJACgDI9bQpYuIJhTmvbH6Hh8hFgMZL3RBZr+wZm5/Q42y/JhyuV7D4W8Db0mQzDXHBwKda9e6nnqZb5FgUTSSA2zqF7xT1ZJfsRec8yOKa5b8cleRDLKn/gPZHBM89iHjPUfxJ7QwHlr6yIiRkGzDU3R5dORdHm0EaaxbJxEhOSJqpd06FhoO+IKFZMwSaFgdWdsYLqyTe+Q+X4hGNsa/uYyJNrlEp2uKgPZBDl7OjYoVPtxDgLfYUCjdSD2DDE+FaCnUT/YJBSsX7ABfW+bDZpBcuiPO+JDBMa0kCxm4oj4lQYlBAlDobBUxnk7bvWTnlpsS9RwJEEYsOkJT8aABYlyHuGZf4LZi5lkfd/Rdp1A4uhQqc5Oco/Ydn5spiIk7+DZXuI+jAG0bC3K9SOh6YgCcSGUbLsx+r36undvVc8i0OJ1ULnMAzzVffaaY9DIxauBov3RX5Ugj0je7dPvcxblmh3YUISiI0SFm7/Dli2fs4GGUMN9PTs5BVgUYrvHIbBQ+/iZb7+65L9d4IzW7rnZMCe6d4rMCvScq0vPEgCsVFYIKf3AINkr3rNL4ZF2HVlWQwRPIfFJ3Fvnk4B2MliPoO6vrN2H0h5sISRBGKD7LzqXFadjkcFc8odSYySxXLBkxjmPGPHpChZdpHYz2EZZkZIUOY2sxtciJGmeW0QRVbWB1ouIP8+jLwyHiyqCJ3DMMwvUCg3iX3oMQxW9QnMXmaRBhdipB7ExmBZlmFZdpjmNjsWl1lW+T/BkxjmPJTsWDEr5KrDmV0hgXM/tkBzCz1SD2JjbI+Qt2SByuq/GSBJyaAzb2Tf22OKs2Crirk+A+ZcqRL+AyyRJK4oIAnExmDBjsj9N/McYMfqPYcVKw7cc2Gcujcr+zTN3HYWFaSsJjbEsesl3GIy4l5Sx0TLk2gHuya9gzJvWuHahRapB7Eh4jITelhFHAyUkGFQ7/qSOIxFMtJtCJZVhljjugyYz/rWV+y1xrULO9IQy0bY87yUS8aLV9Es4GLJ6zIMtvRpoBhoyWsWJaQexEbIePmqs6XFATCXSpUo+aFlr1m0kGwQ28GywysGr2R28p7SjJV5SD2IDXCRDZKzLLpa8JJZYJjeIQFpTy14zSKJ1IPYAI8vX26snfvWHGQy2YyQwKzTlrpeUUbqQWwApRIdLHUthmG2hwRmCTs1ShiFJBDboL0lLsIA9zw93UdY4loSKiSB5DO7bvm4g2UbWeBS6XYyWZ+iklQ6r5AEks9kpcS3FpOKxxCMTDZJigq0PJJA8hlWxrQw9xoMg9/7BGattUyLJDSRBJLPMEo0NPMKt93tfMZZqj0SuZEEYnlEu+/Q4CiwQWZ8VpY9mEFFOXeutZEEYjkcAPwA4ByAWmJOCLvqWN2c9Q+ZjJnXKyjrkqnnSxhGEojlWAFgPECHTOEAZhkqLcBksyYPrxgwJ3vXn7PE1PMlxCEJxHJoFuR3BLAYwGkANYVOULJsAxM/K4Fh7IdIYbPWRxKI5TgD4G+tbY243mQ632/NMKhuygfZyewmSClC8wZJIJYlJ/OIv1+JaIZhErl6gV8D+A/QEYRgGh8hGAZbegdmbrJIayUMIgnEspDe4ih5I3ew946NvuC6cMGUcE9P9ygATQBEAviE/O7H2Nb2YNmKxlycAV7YMe7jrdZ6CR3016eTMIVYAAMTE5OZCuVLy6ZOGVFy1swxXm1bN3l87eqd+89fvB4AoHNC1MMHdZvKhhl1ZRmGhASmXbZayyV0kEJuLQ/5Te+Q4VOlimVx59Yh2Nm9fQ7FxL5Jnb/g+6ubt/5VpsewjNJdBjCQyQz/NzAMtvVpoBCbrV3CQkg9iHXwBNA2/k0i6taphlq13qatcnFxknfp3KrMjGnjPLJTyz05tu91urtPnJuru94JqRhXxrnbptWZRbpeYH4g9SDWoQKA++T3bd6sAU6d0J8fOjom+s3OA7/Elw0+Wiop7bEjw+T+b2EYu4F9GmRusXKbJSTylDOqKgZgIy/tZtnsu3r/jR09gGUVUYo9fy9+2K1v6bSglgzbdSDDhoxkrhCbhZsBc8jvLyUhYSn+pxbIqA/7iROIxt+b1i95Vt6/ZIb6Gtw/BYBH3EzZWm613iLBVhL8SNO81mO/+s3mLXuQlJRs1MmdO3TNHFpvnsOQoMnKEm4lX3Obyf9XOQBtAFpBajGAAZZuuMRbJIFYj3AA6eRNSmoatv25z7izGSXpMVDBu4ZsbLN5voODJyt8XP1e8Rx5yjLNleBDEoj1yAZwRf1HaNg/Rp2sbahX9Kph16ZqLz+eQ6+Z3kQJQ0gCsS5X1W8iI43LG52Zmclqb3uRyOt+9dy0pkmIQRKIdclJ3PbqdSzijcinEBMXrxOnnpgez3foG9ObJ2EISSDW5aXmHzduRIk+MT4hQa69LT2LN4uoNPVrRSSBWJdcvcDdqIeiT4yLf6MjECe5M9+hFsvIKKGLJBDr4qT5R2qq+DzSSYnJ8rSs3KHmbg6efIdWM7l1EgaRBGJdcgkkO1sh+sSs7CzH5IzEXNvcHHk7i/omt07CIJJArEsxzT+MEYhCme2QlJHb/vZ24ZvlRW+TWydhEEkg1qWJ5h9OTuLtaVaplMWk5LLxUcGrOuxlOqYJ+YzyZrVSQhBJINbDictwkkOF8mVEn+zgIEd0cu4lDns7OSp582YU6mdyKyX0IgnEejTRnoKtVKms6JM9i7njZdITnSCRaiXq8h0+WprutQ6SQKzHBM0/nBwdULGi+B6kZMkSeJn4hMlSZObaXqdkI7jI3bQPrwJgklmtleBFEoh1qKFtPLdq1QiOjo4GT8zMVAmCCETJKpjnCbnXTuR2DmhSgbfezlwAvma2W0ILSSDW4Qvt33bsaHGVmDMzs+irn58PGDDsvdgbOsc0LNsKznJX7c0eAL4zo80SPEgCsTwTtXuPbl3boGdPcVXW1AKRy+XwL+GfGRWt66zrYO+E1lV68J0+kPt8CQshCcSydATwjeYGTw83/Pzj56IvoBYIITiojuxV8lPEp8boHBdU5h1U9KrBd4lvAbQ2st0SAkgCsRyjAewlD3/NjcuWzkbp0v6iL6LpjvJu56b0WtdfXtA5jmEYdK8zFI72Ttq77AGEAggw/itIaCMJxHyKA9gEYLW2c2LvXu9i5IfCSxQsqxPygdTU9Jz3rVs1pq9XX5zjPd/TyQs9an/Al5zGG8Ax7XUYCeORBGIeXckDnhv756JZ00D88ds3ek+Ojo7T2abZg9SpUw1VKlVQxKS8xNM393mvUcMvEO9W78O3iwj3MIB2or6JBC+SQEzDE8A6bkhVUntn9WoVsXvnajg76wx/cvHs2UudbWlp6bn+Hj68N03ud+npCcHrNC7fjv7jwQPAAQAz9DZEQhBJIMbThes1eOuRV6pYFvv3/Qpv7+J6L6JUKvHiRbTO9qSk3C7uI4b3gZOjI3v95UVWIKKQ8m71vmhRqTPfLiKwJQD2cRlRJIxAEoh4yB2/kasBUprvgIbBdXHmv79QoYLhFfNz5y6jdGld79zklNzZRf39S2D8uIGMQpnNHLmzQ+8121R5D11qDgTDnzCzMyfsGVyBHwkRSAIRRw8ANwAMFTqgW9c2+PfoJvj6eou64MFDJ1GzZmWd7XxBVTOmj6bDtWsvzyMq5rre6waVfQdDgqeimDNvO9y43uQmAF7DRSI3kkD04wXgDwC7yMOc7wA7mQzz5k7Ezu0/wcWFNySWlwcPnsLBQde/kFwjOjo21zY/Px/MnjmGvv/7+h/IyNYfmVjeqyrGNJ1L10oE0i9XBPAXAGLYBItudBFEEogw73FDkkFCB5QrW5L2GvPnTcpV4sAQjx8/FxSTV3FPPHqkm8ln+rRRqFC+NBIz4nHodpjBz3Cwd0KXWgPxYeNZKO0pWKenJYDz3NBRZ7JBQhIIH17cusZOoV6DMHRwT0SG70GLFsY/gMO270ezZoH8H+5VDI8ePdPZ7uTkiGVfz6LvI56dwv1YcXm2SnmWx/BGM9C99lA+/y1wXQwZOt7i3FSkkhgaSALJTS/O1hD0LKxSuRwOH9iIjRuWonhx3iQKBgkN24/mzYJ49/n4FMejx/y54EJCOqHjuy3o+73X/0Bmdoaoz2MYBvVLN8OEFp8jsHRzocM8AHzP9SiNxH2Two8kEBXEot0MYDsZ8vMdILe3x2ezx+Hq5X1o166ZyR/07NlLPHz4DBUr8gdP+fuXQFSUcAHbVd/Ph6OjAxLSY3EsapdRn016kG61h2Bo8Cco7lxC6LAGXOmGH7Vj6osikkBUDoZX9WVJb96sASLDd2PRwql0qGMO23ccRNOm/MMrcEOp6BjdFXY1VaqUzzHYzz8+JpSOVC/UiG82F43KtRUy4sl9MQ7Aba5XLbIUZYEQK3kVV6aA10D1cFd54p48vjVXGTVzUA2vGug9Jjk5Re/+mTPGcPHtLP6+sQlKVm/5Nl7kdg7oWKMfhjWaJpQtBVwAFulV1xfVBHVFVSANuPIEE4QO6N6tLW5c+wdjRg/QybRuKi9evMapUxfRpnUTg8fqSzJHeplvlqoM9heJj3HxyXGT21S2WGWMbjoHTSt0EFpgJAzjMtW3MvmDCihFUSAfcWNs3mAK0mts+v0b6ktljJu6GH5dH0pX2evX581MkgPpHa5fv6v3mN69O6J1K5XQjkftQWqmcQV6NLG3k6N9tRAMazQdnk6CC53lucpWS4vSSnxREggxOMMArBTKABLUoDbCL+7EwAG80XpmoVQqsWbtVoT07mjw2IoVy+DqtdsGj/t++RzIZDKkZ6fi33t7zG5jmWKVaG9Sy49/ho27X6YBOE06H7M/sABQVARChlQR+rIQThg3CKdP/YnKla2Tg23PnqN4/OQF+vXtYvDYKpXLIyJCNxZdm7p1q2P0SFXp9PAnJ/A62fxSIU5yZ4QEjKKzXcROEYD8nhcACM4ZFxaKgkD6ATjJlWbWwdHBAb/+shirVs7ndf2wFJ8vWonGjQIQHMyb1yoX9erVwJmzEaKuu2jhZLi5uoEFi2N3jZv21Udg6eYY2eRT+LkLOl76cUMuXq/mwkJhFgixOBcB2AbAhe+AUiV9cfzYJgwfZl2/vZ07DyE84gamTB4u6vjKlcvh/v0nSNHy7OXD27s45s9VpcS6E30Z2mmCzMHH1R8jGs9Ew3JthA5x4OJilhfWFfjCKhAHzhnvM6EDmjapj0sXdqJxY+smR09NTcP0mV+hYoUyouwPcCvfdepUw8GD4upzTvp4MEoUVy38Gbt4aAh7mRydavRHz7oj+PICq/mYc+gsdNkdC6NASG+xG0CI0AEfDu9LnQz9/QVXky3GjJlLEHXvMX5YOR/29jpV1QTp0L451vyyVdSxcrkc06aOpO/vx97EszcPTG6vEHVLNsLwxjOE3OjBhR+HFTaRFDaBeHALf7yPahnD4Ntls/HL2i+tam+oWb8hFD/+tAn9+3ZB587GLSF07tQK+w+cxLlzkaKOnzRlEDxdi9EsEGcfHTatwQbwdy+LEfq9g7sB+FM7s0tBpjAJxIkLK23Jt9PD3Q17dq3BlMl5Y1P++NMf+HDkbNSsWQWrVs4z+vygoDqoVrUCZs5eKup4JydHjBwykK703XwVjoQ0YXcVc3B1cMfQ4Kmo6SfoDfAegK3aGV4KKoVFIOR7bBGadiTj/9On/kSXLtbPpxYTE4e+/SdiwsQFqFatIo4e/h0+Pl5GX4fYIbNmjsHxE+exZ88RUedMnzsUMsaOZcHi/OOjJrReHPZ2coTUG4UGZVoIHdKbCzSzjAtCPlJYBPIDgJ58O5o3a4DzZ8NQu7ZlfKn0sWvXYdSp14X6WxEbgtg5fn4+Jl9v6JBeNEPKjFlfIzs72+Dxfn7eaBbYhN6Ul5+fgUIpvqKVsRABd6k5SJ9I+uubJCkoFAaBzAUwlm9H+3bNcHD/BpOe4Mbw+nUshgydhp4h45CYmIyVK/6HA/+sN3sSwM7ODou/mIZbt+/jl3V/ijrno0kqp+S0rBRExejm9bUkb0XCO6olLOCM9wJLQRcIMSh4E99269oGe3evMSpO3FiUSiV++PEPVK/ZAX9s3kWzmkRc2o2PJgyxmINjr17v0inp+Qu+N+jlS+gzoD3cnN2psS6UkdGSqEQyUEgkMi460/rdt5UoyAIhffsavh0hvTtie+gPoupxmMr585fRsHEvfDRpAZKTU2niBmLnVK9eyeKftWTxDLx6HYuly34xeCzpdZoGBVN1RsVcR7Yyy+Lt0UYtkqr81a88ufBld6s3xAoUVIEU5yIAdVZvBw3ogW1bVtC1AWtAbIF581egWYt+dHWc2AhEGPPnTTJqnUMIvny9LVs2pD3iN9+uw6tXupnetXkvRLXynaXIwKO4O2a3SQxEJL3qjhCKLanF2YkFjoIqkHV83qQ9urfFbxuXGpVhxBju3n2I5i374/NFq6BQKqmDIxlSNWxYz2KfESMQTfjlok9oWtKFi1YZvEbX7m+HO3eir1qsbYZwtHdGv8BxcLDjTbk6RGh9ypYpiAIZzxcGWqtmFZosWiazzldas3YrAoN64PyFKyjpXwL/7F1HHRwN5d81Fr50pOA8d/v364o1a7fh/v3Heq9RoUIZlPYvRd/fs7Khro2Pqz961RNca/oZAG9qFVuloAmkrnaBGkLxYh7YteNnuLvrFLc0m9evY9Gj5xiMGTcXKalptKTB1ct/o1Ondyxyfe0e49mzV4LHLpj/MR2CLfh8pcHrduASS8SnxVht0VCIaiXq0QhFHipwDqQFhoIkEDtu8SnXI9tOJqM2R5Uqlo/j2Lv3KOoGdMGevUfh7uaK9eu+QthfPxhMTC2WrKwsPH2aO8P78xevoFDwr19UrVoBgwb2wKbNu3H7Nn85BDVdu78V8IO4WxZprzG0qtwdxZ1514AmFaS0QgVJIKMA6Az2v14yEx06CC5WmURmZibGT5iH7j3H4HV0HFo0D8LliD0Y9oGg/6NJHDlyhrq2a5KVlY2XL/mHWYTPPh1PXw31Im3aNMmZan4YZzg60dLI7RzQtdZgvl2ygmSwFxSBeAJYqL3xvR7tMHWKZX2rXrx4jVZtBuGn1ZtpLqwvFk7F8WObBfNYmcP1G3d1hoVkCPX8+WvBc0gvQmyRbX/+jTt3hL12SS9XubwqRuxxvP74dmtR0bsGAko15dsVDKB73rfIeAqKQOYS+09zg4e7G3UhtyRnz0YgqGFPnD0XSQ1xIoxPZ4+ziuGflpYuGBClzw4hzJ41FkqWxbJv9K+LBARWp68J6XHQV1vEmnSo3gcucl7b0LL/eVaiIAikCl9p48VffmLRrCMbNobRnuPFy+icYCp9Cd7Mhdg1TXiCtWgP8kK/QOrUqYZOHVvit9936l0XqVv37QL2kzf3zGyxaTjLXdGsIu/sbgMh/zlboiAI5EvtIJzatapg7BhxhfnF8N3yXzH8w1nIzMrC6JH9qZNhyZK+Frs+H5s278I77/DbqvqGWGo+mfIhMjIz8f3KjYLHaCa7exIfZWJLzSe4bCu4OPAupM+3dY9fWxdIWb5MJAsXTLHYsOfzhSsxddpi+n7J4ulY/fMiqwdTXblyC8U8PXjTmBKb5LFA8mpN2rdvjoB6NfDTz5sFfbTIg0TN0wTLRxmKhRjszfinfQO4ICubxdYFMkbbnSSoQW3qwGcJps/4CvMWfE8jDX/6YQGt5JQXfLd8vWDuLd8S3oi6Jy7f7vhxgxD/JhFrf9nGu58Y9GqvgldJT/PEL0uI4LKthXqRUXnfGvHYskAc+H682TN5PduN5rM532DZt+tgb2dH3VMsOWTTx82bUTSlT/v2/BnifX29cPOmOHth4IDudH2GCI4vXkQul9OoRIKSVeBV4lMzW286pBdpwl+Jt7NQRn1bwJYF0pdLnpxDSf8SeO+99mZfmBjkX371M+05tm5ejkED3zP7mmKZ9elSTJ82UtBfzM/PB28SkvSWQFDj5uZKRfLk6UuEbT/Ae0wtjWHW80TLpQQyhYBSTfny/9pzflo2iS0LZLz2hpEf9jPbY/bff89h9Jg59P2ypbNoUZq8Yu/eo7hy5TaNFBSiVCk/eHsVw+Ej/4m6JvlNCBt/2867v4aG+/2LRP0+XNbGzdETlX1q8+2y2eRztioQ0uXmWmFiNG4GU7lz5wF69xmPrOxsjB87KM8SOBCio2MxcvSn+OmHzw264jduHICt2/4Wdd3g4Lq0duHBg6d4V+A1Q35fJj4xoeWWpV4p3sz2NcnXzvvWGMZWBfKu9vRfUFAdlCtXyuQLZmZmIqTvBGrUdu70Dr5fMdcS7RSFQqHAsBEz0aVza1FOjp07taLJGk6cOC/q+r16vkvd7zdt3q2zT7MsdXTKcyiUhmPbrUl13wA42fMmuhTMm5yf2KpAdMY9PbrzGnii+XzhKly7fpc+bbdtWWG1mBE+xoydS5/uYkVJviuxjyZP/YKG9RqiV0/VFOpvv+/Q2VdCIx5fySoRnfLCqLZbGnuZXChlkPnGpRWwRYHIuB4kF+YIJCLiOpZ8vYZ2SevWLraKW7wQ02d8haPHzmDf3nXUqBYD6Sm7d2+LiMgbopI1NG8eBN8SXrhy9bZOrIhmD0KItkAGeHOp7MNbHyWQqxVpU9iiQIK0/a78fL0REFDTpItlZWXR4U22QkGrRbVty+s8Z3FSU9PQ//1J2LX7MA4d2GB0+p/P50+mvchnc77FmzeJeo+VyWQ5D5BDh3Mb9yVK5M7oEpui340lLyhfvBrfZvL8apv3rdGPLQpEx3e9UaMAky/21ZLV9MlavlwpLP16prltE0VU1CO0eOd9vI6OxdnToSbVHKlXrwZGj3ofMbHxdHhoCLXwDx85nWu7j0/xXMZcfjktauLi4EbTmPLAu9yen9iiQHS6ikYmxnzHxb3JyQSydvUXooc4ppKenoH/zVuOgMBuaNumCc3J5eVleiXlxV9Og7+fD1b98DuNh9dHK86v6+jRM7nsFmJrabYhKSPB5PZYkgpe1fk2Sz2ICCwmkO+Wr0dScgq9WS0dVKXN3r1HUatOJ7pgd/Tw71i2dLbZmVWKFfPA8u/m0GnpOXO/1XtsqVJ+tJeMi0/AtWu5M5lo2iHJGW/MapOlEBBIZQB5ZyCKoEAIxFDRSz4SEpKwctVv9P3/5nxkmZbx8ODBExqz3rP3OAx4vxutcWjJmiP9+3WlaUz/Cv0H4eHX9R6rHoqev3Al13ZX17fJ82ylB9FTuYq3uGp+YWsC8dGeyXBxdtKZiRHD9ys3IiExGe+0bIhWrSy/BpWRkUFT8NSu25nOHBFb44tFn1glWd2K7+ZQD4L/zV+u97igBqpVam0haXofpGWl5PtaCMHDqbhQDURJIHrQ+XEqVBB80giSlJSM5Ss20Pfz5urEWpkNMcIbNu5N04F+PGkYDa4SU3vQVGrWrIKJHw3Bvn3/4sYN4fDZgHqqzle7Qq69fe41n+QM/bNieYVAkjlJIHrQ+cUqVCht9EV++30nHYs3axpo8WldYms0bNwL9+49phlOiCFtzRSnav43dyI8Pd2x7Jt1gsfUqaMKkLpxI3dwlK5AbGOY5e3KKxDT5vOthK0JxEN7Q/lyxgtk/YZQ+vrRBMs5ibIsS3sMYm84OjrQqMOePfNuVpKIY8L4wdSdJDaWf6q2TJmSNFafPBw0821pO3imZxsuDpoXCPQgvIsk+YXNC8TLy9OoC1y7dgeXwq+jmKc79VGyBEQcIz6chQULV6JGjco4dybMoulGxTJqZH+68EkMdiHU7u2PH791KdHuQTKy063YSvEQO4QH69aqMBKbF4ibG69jmyBbtu6hr/37deUNaTUWIo4xY+dgw2/baaWqI4d+Q/nyxvdqYiA3vz7I5zZpUh9/bBKuZFu3juoB/OSJpkBy9yAZ2Wlmt9USONjzpm21qSzwBUAgxi3u7dylKmDZt09nizRo0sefY+26P6m7y6EDG6yWzIEFS29qQyLp3KkVTp8Op9PLfKh7kKfP3mZs1O5BMhUZFmmzuTjyJ7l2s6VEDrYmEJ2nhzE9SFTUI9y4GUWHV61amZ/dcsHn32PVj3/A08ONVowyxWVELGmp6fDwcMO5c5f1Htfx3ZZgAWzesod3fxWujS9evM2Mop3gwsZ7EMaWFgttTSA6vt2uruIFcvDQSfratUsbsyMPjx07S32gyP/Wlk3LTXaWFMPLl9FQKllaKu6/05f0HhscXBdexT15Yz8I6hzFr1/H5mxLS8ttc9iKDeJgLzgEtplhlq0JROd/Tkw8hJrr11XTm40bm+7cCC76b9CQqTR74dQpI4yucW4sR4+dyekptadotSG9Qft2zXDz1j3eMgjqoLJXr98mlEtJyd1j2MoQSy4TTK9kMyUSbF4gmZniU9XcvKW6uWqYWQZt6LDpNMNiw+C6dJ3DmpCn+/37b+2JpOQU6mSpD/XazsFDp3T2ubg4014vPv7tYqBu3izdKlb5gZ40RLYxD10wBJIp+mR1JpBq1Sqa3ICwsP3Yf+AkdXHZunm51Uq5qflu+Xq01nCFqVO7GvYfOKH3HPXxBw6e5N3v7OxE6yaq0e5BeKq85Qt6hnq2sdRvgwLRsR6zsoz3GzI162J2djY+47xmp08bhUqVypl0HbFcv34Xu/ccQYsWwTnb6gfUxN69x/SeV716JeoGT+wkvnxYpBfR7DW0BWIrPUgmv0DImDo571vDj60JxKwhlvppn55u2hj71/WhuH3nAUqX8sOM6dZN+EeGUe/1Gos5n+bOblS/fk3ag/Dd+JqQXiQhMZl31svOTparB9EeYtmGPIAMBa9AkmyoiTYnEB0fioSEJNEnu7iopg3F1BPXhtyQ6qI0xO6wZn118ll9+0+kYujWLXeMUMWKZeni5JkzEXqv0ayZKvHBcZ7MJ+QBoW+IZStjLIHpZttwFOOwNYHoZBR4+dJw2WM1Vbk0m1H3jE+Qtn//CTx/8Zqm6hw8yLqZFkePmYNLl67h++W6WU4YhqFTuX/v+1fvNepz085nz0Xq7EtLy8ipPUJsuCyt3oi1kQd0UjrvZET+xwRrYPsCeSVcjkybWjVVq8g3bxqf6l/tvjF2zICc0mXWYP6C77F+YxhWrZxHowD5CA4iAtFvhwQE1KCzVefP5x5iKZVKWsZBbYfx9cB2MvPruVsCgRREeV8vTg82LxBDxSo1qV1b5e597bpxJceSkpKpsezk6IAPhlovf9lvv++gDo/9+nTG4EHCtWOCg+rQ76CvDIKHhzsdjr16HZuriI56eCmXq0TAV1ZaoI55nhOT8pJvc97WrTaArQkkkfxumhtu334geqpXXbHp7Fn943dt/tl/AmnpGegT0tmsJAv6uHLlFnV6LFXSFz/9+LneY9XBV/v+0T/MUhcAJddWEx2tcnNXexLwCcRReAU7z1CySqEURJJADJBrUJ2tUNDpUDGQJ2pJ/xI02/nTp+IzCBJ7gNCpU0tj2yqK1NQ0vD9wMtIzMrH6p4UGRVi+fGnqT3b02Fm9xxUvpvLtvBv1NuPJq1cqFxN1D8JXzs0WepD41GhakoEH/YH3eYzNCwQ8ydD00bx5EH399/g50edERN6gry2aB4s+xxi+XrqWuob0CemkM2slRK1aVWgmelbPjFPx4qpYmQcP3tb9UA+3cgTCU85NwEkwT3mVxFurJB1A/hRTFKBACGTv3/oNVk06c8mh9+w5Kv4DI2+iTGl/q8R5REfH4tvvfqWRfnyzVkLUrlUV0TFxentPd3eVy5KmY6LaB8vHRxWMpOnVq8bBLv+HWPdjb/JtvgKAt1vJL2xRIGe0N5w+HW7QP0lNt65tacrO/QdOGoytAGegkxtRs9CMJVm+YgP1r5o0cahRsSTq9hz7V3iYpe5dkjTWfR49Uhn26lSnz3kE4iQ3LgjNGtyPvcG3+WDet0Q/tiiQ+9rdrEKpNOifpMbX15vmh0pMSsbx44bLB6hX3Z2cLF+4U6FQYMPG7XB1ccbkj4cZdW5trkLtiZMXBI/JzlY9bDWHYWp7xM9XJRA+I93d0ToTEWIhxnlCehzfrn153xr92KJACDr1xAz5J2miTuSsL3ZbjdqVxckKmUkOHjxFn+DDh4XA25s3/lqQSpVUuWs1Z6i0ycjQnd27c0dVzTanB3mua6R7OOWvQAR6D6IYcQVR8hBbFYhOV0t6EO3AHyEGDexBh1lbtu7NWVEWQn2TKa3gfqFe7Bsy2Ph6+erh2L17jwWnudW9nwPng0Z6ErVHc6lSvvS8Z89yC8ReJqfF/fOTqBjeiaqDtmZ/wIYFcohzWssh/k0ib4EYPsqVK4UOHZrTsfm2P/WXMnN2Vs3oqJ+8luTgoVOoUrmcSdnpXVycaagvGV7eucOfuDolVeXLpP4OT568oOs54GJiiFgUWgFnAplE8ozkjATc4+9BbG54BRsWCHns61Sl/G75er3TnpqMHKGqZ7j2F/0FaMhQRG5vTxckjYleNERMTBzuRj2iSRZMRd2LCHkTJCWpvMLVjpWaGeBr1qxCv5M2+W1/RD47DZbV+Z3J0GBv/rRIP7YqEMLv2htu33lAMxuKoUePdrT82NlzkTkLgXzIZDKULu2HjMzMXJF95qJ+6r/TsqHJ11CH4T7jsSMIb96oOln1lO6duypBODo4oGLFMrh9R1dYnk75l3aKPNwin/GuaW2zNSdFNbYsEDKA17ljv/nuV1EnOzg4YNzYgfT9l1/9pPfYsmVL0tfzF/RnFDEG9c3apInpmd4dHFS2Bd9MFLiYEmgKhBNltWoVaF0Qvh7Ex62kye0xl4dxtxGfxuudrf8/KB+xZYGQflintNLxE+f19giaTPxoCA2d3bHjIG7dEl6gLVtGddPs23fcnPbmgtg0zk6OKF3a3+RrODqqpp75FvtAh3Gqh666zJpalOok1nw9iK+b6ZWCzSX8KW+IcCQA8W4PeYwtC4SwWttYJyxYuFLUyT4+XrS2OsuVYhMiIECVUHz/gRMWs0Pu3H1IfcPMcZ1XOxzG8OTiTUtLpzl4CT7e6h4kd6/FZ9z7ulknK6QhopOf48arcL5dNtt7oAAIhNwBa7U37tl7VLQt8snUD2FvZ0fzSAmVMVN7AcfGvTGYuE0sjx49MzqvsDbqNRq+EOKnT9+6ipMehBjsahuqaZNAmuA6Vsv7wMHOCZ7O+WODHIvazRdJSxq4OV8aJBJbFwjhO75Y9UmTF4paFylXrhRGDO9DvYJnfbqU95jg4LpURIRNm4Xz3hpDSkqa0XmFtVGv0fDF5WsKxNfXGxERN+haDhnW1atXXacMG/JxePU84SFuv9aNfASwxJYSNPBREATyFIBOaaUHD5/iiy9/FHWB+fMmUVtk+46D1K9LGxcXZ9Stq6qZ9/sfuwwuLoohNTWNd6XbGNQ9B59AnnDu/EQQJUv64lK4yi6jYre3x0UeO83XPX+GV0fv8j50ngFYkfetMY6CIBDCYjKM1d64dNkvohb4yA00ZfJw+n76zK94j2nbpgl9TUxKFsx7awypqem5kreZglpgzs66bjDqHqRy5XLUzrl4USUI9bTyxYtXdc4pW6yyWe0xhXsxN/Agjtdzdx5fmidbo6AIhNxpC7Q3ZmZlYcLE+aIuMGP6KGrMnj4Tgc1bdPPa9u/XNef9Tz+bPywmw783bywjkGLFdJLe4+FDVTyFOlGFugdp17YZfb14SVcgAgX8rUZGdjr23tBZziLcALAhTxtjIgVFIISf+ZzZDh85TeMtDOHh4Y4vFk2l76d+8qXOzduwYT1UqqhyEIyIvIG/jYhB4YNlWToNK3bln48cgXjqCuTadZWNUa1qRWqgk57UydEBzZoF0u92Tyuzi6eTd54b6Idu/4XEdN71v9m26HfFR0ESCPlBR5COQ3vHzFlf47iICMJRI/ujcaMAmujg08++0dn/fv+3vcjcecvNurlLlPBCckqq6HBhPtSTEOqFQDWkXdeuqa5btWp5aqCzXDSlo6MjXSfSbnl5r6omt8MU7sVcRwT/qnkoAP7U9DZIQRIIuHjlhdobsxUK9Ht/Ep49482SkQMZq/+4agHsZDKsXrMF57RySn0wtDf1AgbXi4SF7Te5oerio3yJ3cSSmKia4FG7rqshwyt1kFTVKhVyDHJbGV6lZ6Vhz3XeoRX5DxqbZw2xAAVNIISv+KIOX0fHoU+/iQYzoDRoUBvjxw2iU6LDRszMtcZQrVrFXJWpSC8iJiqRjyaNA+mrMbHxmiQnp1Dhg0cgV66oUkcRKderVyPHs6BD++b09QKPgV7Bq7pJ7TAWJavEjqvrkJTBGwE6EkBsnjTEQhREgWQD6Ms3q3X2XCQ+nrzI4AW+/OITWm/w1u37OkOtOZ9NyKn/RfYvXfaLSY1s9Y6qwtWJE+dNWp3XjOPwLeGda5+6DnqtWlWoAU8MdB/v4lT8CoVCJ5LS370sijl7m/Q9jOXgrT8RFcPrCrQWgP7YAxukIAoE3Bz6AL6KVD+v2YLlK9brPdnNzRXr131FhUCO1bRf6tSphl693lbHXbhoVU4QkjG0a9eUpuUhPduRI6eNPl9zIdDPL/fNfeWqSiDNmjagCRtu33lAS7PJZDIcPXpGxzWlpl8Doz/fFC48PoYLT3hzed0DMDVPGmFhCqpACEcAzODbMeWTL7Hie/2ziK1aNcakiR9QY3bosOmIj3+bM/mrL6fTBThCekYmxk34n9GNk8vlOWWo128IM/p8teMhuJVyNcRAP8nFqROjXJ3UoWNHVU6vbX/qxh3lhUCioq/hwC3e2Bsy1upu6yvmQhRkgRDI+Ig3TeHkqV8Y7EkWfzkNNWtUxuMnL/DB8Ldaq1q1AhYtfPvAO3zkNH786Q+jG9evbxf6umPnQaOy1IOrHQKaR1eWSyBXrtzCSy73FelBDh/+j/aEpAeJjo7NKYOtxtetNLxd+XMAW4oHsbcQemUtX1JsYsCFAOBdKSwIFHSBgFuRXca3g/Qk+kTi7OyEv7atpL3Fnr1H8c2363L2Tf54WI4TI+jayWJERBiX9I8Ms4htQHohseHCatT5hcuVK5WrIKm6qlQJHy86U7Zj5yEEBtaiIiL2UqqWf5q1e4/bryOxJXwVsvjrHo4GID5BmQ1SGARCmA7gB74dRCTfLRdeSKxduyrNtE6Y/ekyalSDizQkdoo7V6c9IzOTTiWrw1zFQG7sD4b2ou9XfL/RKGNd7Wyozm6iRi2Qdm2b4sCBk9Rjt09IZ9p7/PjTplzHMmBQr1Rj0Z9pLFeen8Vfl9dAwfIW+1lUUFbL9VFYBEKYSIb7fDumTluMWbOX0hkePkYM74uhg3vSOhohfT/KceOoUaMytm1ZQYc54OqOjBg526gFxNGj3qev9+4/xq5dh0Wd8/JldI6remWNMnApKak4dUpVJrpvn87Y+PsOOrwaOKA7Zs5ampPEQU113/oo5uwjuq3GcP7RUey6toEvvhyc14P4NJI2TGESCMvNs2/l27lk6Rp06PhBrjSdmqz+eREaNaxHZ4B69ByTU0agc+dWWKGRMjQ0bD9mzFwiulHVqlVEm9aqp/g3360Tdc7581dy3mv2IOSzM7Oy4Obqgtp1qtFIyRYtgqlbyfqNuhMBTcq3E91OsWRkp2Pn1V9x4LZgMoyvAIyz+AfnE4VJIOCmfYdwTzAdjv17DoFBPfDff7rF+p2cHLFz+0+0PuHVa3cweOgnOYuOE8YPxpSPh+ccu+zbdVi56jfRjRozegB9/e90uCiXmKPH3q6DqguJkl7r66Wq2LGQ3h2xevUWmtJn0MAeGD12js41SntWRNnilk2n+jzhEdae+QJXXwh6B8zg/KwKDYVNIOAWEskTbDhfoNXzF6/Rpt1gXuO9ZElf7N65mtodu3YfwZixb3uOb7/5FDOnj875e/KURaIyNxJ693oX5bkC/xM//txggU5NgQQ1qE1fd+8+ghtc5awhg3vil3V/0mueP3+ZDt+06Vi9n6i2iYHWTHx4COvPL0F8Gm8CCfJgGgWAPyKtAGOX3w2wIpEAyB3cEUCuZFDEWCbGLjGEW7YIzsmSDk4kwUF1aFbG8MgbNIVOS65Mc/v2zemM1+Ejp+l4bvv2AzTuPKBeDb0NsbOzoxlK9v1znA7xihfzoGGxmvz99zF069qGGtvqIVylimVpsBdh+Icz8fTZSzRv1gBJSSk4eeoi3uveDht+050dq1eyCRqWb2POb5fD84SHCL28BpefnxaqbZhAzCBbD501lcLYg2gSTh7CfLl+CWHbD6BajQ5Y/NXPyMh4O03ZoUMLbN28nIbhfjbnG2z87W0Ou5kzxmDNz4voPjLE+WDYdOr4aIhRI/ujNpexff6ClYKZSv49fj7nNuzO1RI5duxsTrHOoYN70XgVf38fbPtLd1HQwc4Jbav1MtgeQyRlJGD3tY1Yd+4rPEsQDEq7AKABgJ1mf6CNUph7EDVp3NONfNeWnI9fDsToPXL0DI0iLFe2JGrWVEXd1apVBXVqV6Ui2rnrEM01VbeOyuEvqEEdtG/XjCanTkxKpvVLlAolWrVqJJjFhPQiAfVqYsPGMLoucuv2fQx4v3vO8eoe5Ouv1+DylVvUq/iP35bRQjjdeoyiGUxI7/Hg4VPqWuLg4MBb7rp7nSFmRQ5mK7Jw5tEhhF5ei+eJ/EkuOL7jeg7xZYgLIEVBIOBmuI5xXsBNAOh47sW/SaRP5JMnL6BBYG3qQVuzZhU6A7X/wEm60Ofs7JhTwaps2ZIYOqQnXdm+d+8xLVNAziXDMXXlJ23KlStFyyyQIdrduw/ptHPbNk3pPiIQIroPR86mMei9e3fE2DEDaQ9FhlPgeo9fN4TC1dU5xxVek7olG6FV5e4m/UAZ2Wk49+gotl/5BXeiLwuVRwPnJDoAwMqCEvRkDkVFIGruaeTaIkLRCfYmT+g1a7dSh8DSpfzoNCoxiiMib2DN2m24evU2Z7e40WQPgwa+R2/6U6cu0XWSNWu20kjA+gE1c5JKa9KieTBu3ojC9RtRVFSuLs5o3iyICiQ1NQ1btu2lds720B/w51/7sISbuRrwfjdaqjorO5s3iUNx5xLoHzieZm83huSMRJy8v4+6qEfFXBNaEQc3+bGScx25YtSHFGCsVxDc9vHnkkF8oO93aBhcl7qd9HyvA80UP2v2UpqQ4dPZ4/DRhMFUKOCSto3/aB4drhFcnJ1oABY5t1q1irmumZaWjpC+E2h1XUL/vl0gd5DT+u6Xwq9j8RefUN+qZi360eFY2TL+8PR0Fyxv7WTvghGNZxrlc0Xsioin/+HKi7NQKPXPqnGOoR/bWoHNvKAoC0RNIwDfA9Drk+Hh7kaLcPbq+S6OHDuNn3/eTD12h33Qm66TVK9eiR73zz/HMfuzZdSOAPcDd+3ahvZCXTq3oq72hKysLAwfMQubuAQSMpmMzq61aB6EpUtmUbsjNu4NnUULDq5D11D4kDF2GBw0WVRIbUpmEq4+P0cTSAsU8dfmJoA5fJn2iwqSQFSQ32EQgE8B1DR0cEn/EnToRXqC4yfO02lX0tP069uF9jRVqpSnflLLvv2F2htqyM3eoUNz9OrZgdZS9PX1xtpftuGTaYtpCG2Z0v5Ysng6xo7/X05ILRmqRV7md4aVMTL0rjdSr0MisS2iYq7j+suLuBt9hUb8ieAkt6axly8dYlFCEkhuyO/RBcA0AK3FnuTvXwJKhYIGR4ErXkOGSOSfp6cbfvp5Cx2eZWktEJLjiD1Tt251rF67FfXqVMfWbXtz7kg/X2+aYIIP0nP0CRiN6r66xXkS0uNw5/UVamw/jLujz+DWhChnBycMm00mnddIAhGmPpdFZSDfrJcQDMPQqVm1Ia2a3q2Oli0bQpGtwIVLV3H+3GW9j2Vi3GdnKwTj4R3tndEnYBQqedeifxNBPIm/h6dv7uFxfBReJfPWIBcigpsG38plsZTQQBKIYRyIGcH5eL0LwKwCfwyjyjrv7u5KZ61evYrN8Q52c3WBvdxeb8I5LxdfBJdtjczsdLxOfoYnb+4JJUjQB7H2t3DCuG3O9ynsSAIxDkdu6NUNQDsx9oox2NvJqIIUCgUsXFP0JbcOdJSbkbJ8QcZCiiQQ8/AB0IJbUyFiqQGgErnX87FNpDu5BuAqgMucwc1bNVPCMJJALI8cQBVOLORfRc6G8eL+qd87m3j9ZADPNf49417vcKKwXKFFCUkg+YgTMTs4Qdlr/VMvh6dzvmSarwZX9SQsx/8DAAD//8kgPMQvEK7ZAAAAAElFTkSuQmCC;" parent="1" vertex="1">
          <mxGeometry x="710" y="680" width="40" height="40" as="geometry" />
        </mxCell>
        <mxCell id="8LBH4XIUtGPgL_ykkFRC-2" value="" style="shape=image;html=1;verticalAlign=top;verticalLabelPosition=bottom;labelBackgroundColor=#ffffff;imageAspect=0;aspect=fixed;image=https://cdn0.iconfinder.com/data/icons/google-material-design-3-0/48/ic_face_48px-128.png" vertex="1" parent="1">
          <mxGeometry x="50" y="390" width="80" height="80" as="geometry" />
        </mxCell>
        <mxCell id="8LBH4XIUtGPgL_ykkFRC-6" style="rounded=0;orthogonalLoop=1;jettySize=auto;html=1;startArrow=classic;startFill=1;strokeWidth=2;" edge="1" parent="1" source="8LBH4XIUtGPgL_ykkFRC-3" target="8LBH4XIUtGPgL_ykkFRC-4">
          <mxGeometry relative="1" as="geometry" />
        </mxCell>
        <mxCell id="8LBH4XIUtGPgL_ykkFRC-3" value="Entry&amp;nbsp;&lt;span style=&quot;background-color: transparent; color: light-dark(rgb(0, 0, 0), rgb(255, 255, 255));&quot;&gt;Relay&lt;/span&gt;" style="verticalLabelPosition=bottom;sketch=0;aspect=fixed;html=1;verticalAlign=top;strokeColor=none;align=center;outlineConnect=0;shape=mxgraph.citrix.tower_server;" vertex="1" parent="1">
          <mxGeometry x="260" y="457.5" width="65" height="85" as="geometry" />
        </mxCell>
        <mxCell id="8LBH4XIUtGPgL_ykkFRC-7" style="rounded=0;orthogonalLoop=1;jettySize=auto;html=1;startArrow=classic;startFill=1;strokeWidth=2;" edge="1" parent="1" source="8LBH4XIUtGPgL_ykkFRC-4" target="8LBH4XIUtGPgL_ykkFRC-5">
          <mxGeometry relative="1" as="geometry" />
        </mxCell>
        <mxCell id="8LBH4XIUtGPgL_ykkFRC-4" value="Middle Relay" style="verticalLabelPosition=bottom;sketch=0;aspect=fixed;html=1;verticalAlign=top;strokeColor=none;align=center;outlineConnect=0;shape=mxgraph.citrix.tower_server;" vertex="1" parent="1">
          <mxGeometry x="435" y="387.5" width="65" height="85" as="geometry" />
        </mxCell>
        <mxCell id="8LBH4XIUtGPgL_ykkFRC-5" value="Exit Relay" style="verticalLabelPosition=bottom;sketch=0;aspect=fixed;html=1;verticalAlign=top;strokeColor=none;align=center;outlineConnect=0;shape=mxgraph.citrix.tower_server;" vertex="1" parent="1">
          <mxGeometry x="600" y="457.5" width="65" height="85" as="geometry" />
        </mxCell>
        <mxCell id="8LBH4XIUtGPgL_ykkFRC-14" style="rounded=0;orthogonalLoop=1;jettySize=auto;html=1;startArrow=classic;startFill=1;strokeWidth=2;" edge="1" parent="1" source="8LBH4XIUtGPgL_ykkFRC-8" target="8LBH4XIUtGPgL_ykkFRC-12">
          <mxGeometry relative="1" as="geometry" />
        </mxCell>
        <mxCell id="8LBH4XIUtGPgL_ykkFRC-8" value="Middle Relay" style="verticalLabelPosition=bottom;sketch=0;aspect=fixed;html=1;verticalAlign=top;strokeColor=none;align=center;outlineConnect=0;shape=mxgraph.citrix.tower_server;" vertex="1" parent="1">
          <mxGeometry x="432.5" y="250" width="65" height="85" as="geometry" />
        </mxCell>
        <mxCell id="8LBH4XIUtGPgL_ykkFRC-9" value="Middle Relay" style="verticalLabelPosition=bottom;sketch=0;aspect=fixed;html=1;verticalAlign=top;strokeColor=none;align=center;outlineConnect=0;shape=mxgraph.citrix.tower_server;" vertex="1" parent="1">
          <mxGeometry x="435" y="520" width="65" height="85" as="geometry" />
        </mxCell>
        <mxCell id="8LBH4XIUtGPgL_ykkFRC-11" style="rounded=0;orthogonalLoop=1;jettySize=auto;html=1;startArrow=classic;startFill=1;strokeWidth=2;" edge="1" parent="1" source="8LBH4XIUtGPgL_ykkFRC-10" target="8LBH4XIUtGPgL_ykkFRC-8">
          <mxGeometry relative="1" as="geometry" />
        </mxCell>
        <mxCell id="8LBH4XIUtGPgL_ykkFRC-10" value="Entry&amp;nbsp;&lt;span style=&quot;background-color: transparent; color: light-dark(rgb(0, 0, 0), rgb(255, 255, 255));&quot;&gt;Relay&lt;/span&gt;" style="verticalLabelPosition=bottom;sketch=0;aspect=fixed;html=1;verticalAlign=top;strokeColor=none;align=center;outlineConnect=0;shape=mxgraph.citrix.tower_server;" vertex="1" parent="1">
          <mxGeometry x="260" y="317.5" width="65" height="85" as="geometry" />
        </mxCell>
        <mxCell id="8LBH4XIUtGPgL_ykkFRC-12" value="Exit Relay" style="verticalLabelPosition=bottom;sketch=0;aspect=fixed;html=1;verticalAlign=top;strokeColor=none;align=center;outlineConnect=0;shape=mxgraph.citrix.tower_server;" vertex="1" parent="1">
          <mxGeometry x="600" y="317.5" width="65" height="85" as="geometry" />
        </mxCell>
      </root>
    </mxGraphModel>
  </diagram>
</mxfile>
